<?xml version="1.0" encoding="UTF-8"?>
<svg width="14px" height="12px" viewBox="0 0 14 12" version="1.1" xmlns="http://www.w3.org/2000/svg" xmlns:xlink="http://www.w3.org/1999/xlink">
    <!-- Generator: sketchtool 61.2 (101010) - https://sketch.com -->
    <title>DD233AE2-631E-4679-9098-F83FA1B171D5@1</title>
    <desc>Created with sketchtool.</desc>
    <g id="Page-1" stroke="none" stroke-width="1" fill="none" fill-rule="evenodd">
        <g id="Menu---Logged-in" transform="translate(-281.000000, -518.000000)">
            <g id="business_center-24px-(1)" transform="translate(280.000000, 516.000000)">
                <polygon id="Path" points="0 0 16 0 16 16 0 16"></polygon>
                <path d="M8.66666667,10.6666667 L7.33333333,10.6666667 C6.96666667,10.6666667 6.66666667,10.3666667 6.66666667,10 L2.00666667,10 L2.00666667,12.6666667 C2.00666667,13.4 2.60666667,14 3.34,14 L12.6666667,14 C13.4,14 14,13.4 14,12.6666667 L14,10 L9.33333333,10 C9.33333333,10.3666667 9.03333333,10.6666667 8.66666667,10.6666667 Z M13.3333333,4.66666667 L10.6666667,4.66666667 C10.6666667,3.19333333 9.47333333,2 8,2 C6.52666667,2 5.33333333,3.19333333 5.33333333,4.66666667 L2.66666667,4.66666667 C1.93333333,4.66666667 1.33333333,5.26666667 1.33333333,6 L1.33333333,8 C1.33333333,8.74 1.92666667,9.33333333 2.66666667,9.33333333 L6.66666667,9.33333333 L6.66666667,8.66666667 C6.66666667,8.3 6.96666667,8 7.33333333,8 L8.66666667,8 C9.03333333,8 9.33333333,8.3 9.33333333,8.66666667 L9.33333333,9.33333333 L13.3333333,9.33333333 C14.0666667,9.33333333 14.6666667,8.73333333 14.6666667,8 L14.6666667,6 C14.6666667,5.26666667 14.0666667,4.66666667 13.3333333,4.66666667 Z M6.66666667,4.66666667 C6.66666667,3.93333333 7.26666667,3.33333333 8,3.33333333 C8.73333333,3.33333333 9.33333333,3.93333333 9.33333333,4.66666667 L6.66,4.66666667 L6.66666667,4.66666667 Z" id="Shape" fill="#6C7A8D" fill-rule="nonzero"></path>
            </g>
        </g>
    </g>
</svg>