<?xml version="1.0" encoding="UTF-8"?>
<svg width="15px" height="10px" viewBox="0 0 15 10" version="1.1" xmlns="http://www.w3.org/2000/svg" xmlns:xlink="http://www.w3.org/1999/xlink">
    <!-- Generator: sketchtool 61.2 (101010) - https://sketch.com -->
    <title>05311F79-FA37-45DD-83DF-29CB868B3C9B@1</title>
    <desc>Created with sketchtool.</desc>
    <g id="Page-1" stroke="none" stroke-width="1" fill="none" fill-rule="evenodd">
        <g id="Menu---Logged-in" transform="translate(-281.000000, -621.000000)">
            <g id="Mojaz" transform="translate(280.000000, 618.000000)">
                <rect id="Rectangle" x="0" y="0" width="16" height="16"></rect>
                <g id="round-playlist_add_check-24px" transform="translate(1.333333, 3.333333)" fill="#6C7A8D" fill-rule="nonzero">
                    <path d="M7.33333333,2.66666667 L0.666666667,2.66666667 C0.3,2.66666667 0,2.96666667 0,3.33333333 C0,3.7 0.3,4 0.666666667,4 L7.33333333,4 C7.7,4 8,3.7 8,3.33333333 C8,2.96666667 7.7,2.66666667 7.33333333,2.66666667 Z M7.33333333,0 L0.666666667,0 C0.3,0 0,0.3 0,0.666666667 C0,1.03333333 0.3,1.33333333 0.666666667,1.33333333 L7.33333333,1.33333333 C7.7,1.33333333 8,1.03333333 8,0.666666667 C8,0.3 7.7,0 7.33333333,0 Z M0.666666667,6.66666667 L4.66666667,6.66666667 C5.03333333,6.66666667 5.33333333,6.36666667 5.33333333,6 C5.33333333,5.63333333 5.03333333,5.33333333 4.66666667,5.33333333 L0.666666667,5.33333333 C0.3,5.33333333 0,5.63333333 0,6 C0,6.36666667 0.3,6.66666667 0.666666667,6.66666667 Z M13.4733333,4.14 L13.5333333,4.2 C13.7933333,4.46 13.7933333,4.88 13.5333333,5.14 L9.81333333,8.86666667 C9.55333333,9.12666667 9.13333333,9.12666667 8.87333333,8.86666667 L6.81333333,6.80666667 C6.55333333,6.54666667 6.55333333,6.12666667 6.81333333,5.86666667 L6.87333333,5.80666667 C7.13333333,5.54666667 7.55333333,5.54666667 7.81333333,5.80666667 L9.34666667,7.34 L12.5333333,4.14666667 C12.7866667,3.88 13.2133333,3.88 13.4733333,4.14 L13.4733333,4.14 Z" id="Shape"></path>
                </g>
            </g>
        </g>
    </g>
</svg>