<?xml version="1.0" encoding="UTF-8"?>
<svg width="18px" height="12px" viewBox="0 0 18 12" version="1.1" xmlns="http://www.w3.org/2000/svg" xmlns:xlink="http://www.w3.org/1999/xlink">
    <!-- Generator: Sketch 61.2 (89653) - https://sketch.com -->
    <title>keyboard_backspace-24px (7)@1</title>
    <desc>Created with Sketch.</desc>
    <g id="Search-Page" stroke="none" stroke-width="1" fill="none" fill-rule="evenodd">
        <g id="Search-Page---Filters-Expand---Dropdown-/-Disabeled" transform="translate(-1176.000000, -6000.000000)" fill="#FFFFFF" fill-rule="nonzero">
            <g id="keyboard_backspace-24px-(7)" transform="translate(1176.000000, 6000.000000)">
                <path d="M16.5825,4.5825 L3.4125,4.5825 L6.2925,1.7025 C6.6825,1.3125 6.6825,0.6825 6.2925,0.2925 C5.9025,-0.0975 5.2725,-0.0975 4.8825,0.2925 L0.2925,4.8825 C-0.0975,5.2725 -0.0975,5.9025 0.2925,6.2925 L4.8825,10.8825 C5.2725,11.2725 5.9025,11.2725 6.2925,10.8825 C6.6825,10.4925 6.6825,9.8625 6.2925,9.4725 L3.4125,6.5825 L16.5825,6.5825 C17.1325,6.5825 17.5825,6.1325 17.5825,5.5825 C17.5825,5.0325 17.1325,4.5825 16.5825,4.5825 Z" id="Path"></path>
            </g>
        </g>
    </g>
</svg>