<?xml version="1.0" encoding="UTF-8"?>
<svg width="12px" height="14px" viewBox="0 0 12 14" version="1.1" xmlns="http://www.w3.org/2000/svg" xmlns:xlink="http://www.w3.org/1999/xlink">
    <!-- Generator: sketchtool 61.2 (101010) - https://sketch.com -->
    <title>9B73598C-B51D-46B1-A161-EDE30EECADBC@1</title>
    <desc>Created with sketchtool.</desc>
    <g id="Page-1" stroke="none" stroke-width="1" fill="none" fill-rule="evenodd">
        <g id="Menu---Logged-in" transform="translate(-281.000000, -584.000000)">
            <g id="Finance" transform="translate(279.000000, 584.000000)">
                <polygon id="Path" points="0 0 16 0 16 16 0 16"></polygon>
                <path d="M12.6666667,2 L9.88,2 C9.6,1.22666667 8.86666667,0.666666667 8,0.666666667 C7.13333333,0.666666667 6.4,1.22666667 6.12,2 L3.33333333,2 C3.24,2 3.15333333,2.00666667 3.06666667,2.02666667 C2.80666667,2.08 2.57333333,2.21333333 2.39333333,2.39333333 C2.27333333,2.51333333 2.17333333,2.66 2.10666667,2.82 C2.04,2.97333333 2,3.14666667 2,3.33333333 L2,12.6666667 C2,12.8466667 2.04,13.0266667 2.10666667,13.1866667 C2.17333333,13.3466667 2.27333333,13.4866667 2.39333333,13.6133333 C2.57333333,13.7933333 2.80666667,13.9266667 3.06666667,13.98 C3.15333333,13.9933333 3.24,14 3.33333333,14 L12.6666667,14 C13.4,14 14,13.4 14,12.6666667 L14,3.33333333 C14,2.6 13.4,2 12.6666667,2 Z M8,1.83333333 C8.27333333,1.83333333 8.5,2.06 8.5,2.33333333 C8.5,2.60666667 8.27333333,2.83333333 8,2.83333333 C7.72666667,2.83333333 7.5,2.60666667 7.5,2.33333333 C7.5,2.06 7.72666667,1.83333333 8,1.83333333 Z M12.6666667,12.6666667 L3.33333333,12.6666667 L3.33333333,3.33333333 L12.6666667,3.33333333 L12.6666667,12.6666667 Z" id="Shape" fill="#6C7A8D" fill-rule="nonzero"></path>
                <path d="M10.562963,5.71208333 C10.4888889,5.49083333 10.2814815,5.33333333 10.037037,5.33333333 L5.96296296,5.33333333 C5.71851852,5.33333333 5.51481481,5.49083333 5.43703704,5.71208333 L4.70740741,7.83833333 C4.68148148,7.91708333 4.66666667,7.99958333 4.66666667,8.08583333 L4.66666667,10.7708333 C4.66666667,11.0820833 4.91481481,11.3333333 5.22222222,11.3333333 C5.52962963,11.3333333 5.77777778,11.0820833 5.77777778,10.7708333 L5.77777778,10.5833333 L10.2222222,10.5833333 L10.2222222,10.7708333 C10.2222222,11.0783333 10.4703704,11.3333333 10.7777778,11.3333333 C11.0814815,11.3333333 11.3333333,11.0820833 11.3333333,10.7708333 L11.3333333,8.08583333 C11.3333333,8.00333333 11.3185185,7.91708333 11.2925926,7.83833333 L10.562963,5.71208333 Z M5.96296296,9.45833333 C5.65555556,9.45833333 5.40740741,9.20708333 5.40740741,8.89583333 C5.40740741,8.58458333 5.65555556,8.33333333 5.96296296,8.33333333 C6.27037037,8.33333333 6.51851852,8.58458333 6.51851852,8.89583333 C6.51851852,9.20708333 6.27037037,9.45833333 5.96296296,9.45833333 Z M10.037037,9.45833333 C9.72962963,9.45833333 9.48148148,9.20708333 9.48148148,8.89583333 C9.48148148,8.58458333 9.72962963,8.33333333 10.037037,8.33333333 C10.3444444,8.33333333 10.5925926,8.58458333 10.5925926,8.89583333 C10.5925926,9.20708333 10.3444444,9.45833333 10.037037,9.45833333 Z M5.40740741,7.58333333 L5.87777778,6.15083333 C5.92962963,6.00083333 6.07037037,5.89583333 6.22962963,5.89583333 L9.77037037,5.89583333 C9.92962963,5.89583333 10.0703704,6.00083333 10.1222222,6.15083333 L10.5925926,7.58333333 L5.40740741,7.58333333 Z" id="Shape" fill="#154f9c" fill-rule="nonzero"></path>
            </g>
        </g>
    </g>
</svg>