<?xml version="1.0" encoding="UTF-8"?>
<svg width="16px" height="8px" viewBox="0 0 16 8" version="1.1" xmlns="http://www.w3.org/2000/svg" xmlns:xlink="http://www.w3.org/1999/xlink">
    <!-- Generator: sketchtool 55.2 (78181) - https://sketchapp.com -->
    <title>09EDAAEB-4B7B-4BC1-BB7C-EF564A8B4415@1</title>
    <desc>Created with sketchtool.</desc>
    <g id="New-Navigation" stroke="none" stroke-width="1" fill="none" fill-rule="evenodd">
        <g id="Logged-Out-Menu" transform="translate(-280.000000, -295.000000)">
            <g id="Group" transform="translate(280.000000, 291.000000)">
                <polygon id="Path" points="0 0 16 0 16 16 0 16"></polygon>
                <path d="M11.8853875,5.14285714 L14.7258755,5.14285714 C14.966139,5.14285714 15.1663585,5.29285714 15.242806,5.50357143 L15.9599561,7.52857143 C15.9854386,7.60357143 16,7.68214286 16,7.76428571 L16,10.3214286 C16,10.6178571 15.7560962,10.8571429 15.4539466,10.8571429 C15.1517971,10.8571429 14.9078933,10.6178571 14.9078933,10.3214286 L14.9078933,10.1428571 L12.6798405,10.1428571 L12.6798405,11.25 C12.6798405,11.665 12.3497816,12 11.9517693,12 C11.5489033,12 11.2236982,11.66 11.2236982,11.25 L11.2236982,11 L5.39912908,11 L5.39912908,11.25 C5.39912908,11.665 5.07392397,12 4.67105794,12 C4.26819191,12 3.9429868,11.665 3.9429868,11.25 L3.9429868,10.1428571 L1.75877338,10.1428571 L1.75877338,10.3214286 C1.75877338,10.6178571 1.51486955,10.8571429 1.21272002,10.8571429 C0.910570499,10.8571429 0.666666667,10.6178571 0.666666667,10.3214286 L0.666666667,7.76428571 C0.666666667,7.68214286 0.681228089,7.60357143 0.706710579,7.52857143 L1.42386065,5.50357143 C1.50030812,5.29285714 1.70052769,5.14285714 1.94079116,5.14285714 L4.73743978,5.14285714 L4.95257878,4.505 C5.05450874,4.21 5.32146816,4 5.64181946,4 L10.9810078,4 C11.3013591,4 11.5731724,4.21 11.6702485,4.505 L11.8853875,5.14285714 Z M12.0660754,5.67857143 L12.6081389,7.28571429 L15.2719289,7.28571429 L14.8096037,5.92142857 C14.7586387,5.77857143 14.6203052,5.67857143 14.4637699,5.67857143 L12.0660754,5.67857143 Z M4.55675193,5.67857143 L2.20289677,5.67857143 C2.04636148,5.67857143 1.90802796,5.77857143 1.85706298,5.92142857 L1.39473781,7.28571429 L4.01468839,7.28571429 L4.55675193,5.67857143 Z M5.64181946,9.5 C6.04468549,9.5 6.3698906,9.165 6.3698906,8.75 C6.3698906,8.335 6.04468549,8 5.64181946,8 C5.23895343,8 4.91374832,8.335 4.91374832,8.75 C4.91374832,9.165 5.23895343,9.5 5.64181946,9.5 Z M10.9810078,9.5 C11.3838739,9.5 11.709079,9.165 11.709079,8.75 C11.709079,8.335 11.3838739,8 10.9810078,8 C10.5781418,8 10.2529367,8.335 10.2529367,8.75 C10.2529367,9.165 10.5781418,9.5 10.9810078,9.5 Z M4.91374832,7 L11.709079,7 L11.0926454,5.09 C11.0246921,4.89 10.8402474,4.75 10.6315337,4.75 L5.99129361,4.75 C5.78257988,4.75 5.59813519,4.89 5.53018189,5.09 L4.91374832,7 Z M1.94079116,9.07142857 C2.24294069,9.07142857 2.48684452,8.83214286 2.48684452,8.53571429 C2.48684452,8.23928571 2.24294069,8 1.94079116,8 C1.63864164,8 1.39473781,8.23928571 1.39473781,8.53571429 C1.39473781,8.83214286 1.63864164,9.07142857 1.94079116,9.07142857 Z M14.7258755,9.07142857 C15.028025,9.07142857 15.2719289,8.83214286 15.2719289,8.53571429 C15.2719289,8.23928571 15.028025,8 14.7258755,8 C14.423726,8 14.1798221,8.23928571 14.1798221,8.53571429 C14.1798221,8.83214286 14.423726,9.07142857 14.7258755,9.07142857 Z" id="Combined-Shape" fill="#656565" fill-rule="nonzero"></path>
            </g>
        </g>
    </g>
</svg>