<?xml version="1.0" encoding="UTF-8"?>
<svg width="12px" height="14px" viewBox="0 0 12 14" version="1.1" xmlns="http://www.w3.org/2000/svg" xmlns:xlink="http://www.w3.org/1999/xlink">
    <!-- Generator: sketchtool 61.2 (101010) - https://sketch.com -->
    <title>4D0AAAE9-1D61-4C66-9932-79788E6089D2@1</title>
    <desc>Created with sketchtool.</desc>
    <g id="Page-1" stroke="none" stroke-width="1" fill="none" fill-rule="evenodd">
        <g id="Menu---Logged-in" transform="translate(-282.000000, -1039.000000)">
            <g id="Help" transform="translate(280.000000, 1038.000000)">
                <polygon id="Path" points="0 0 16 0 16 16 0 16"></polygon>
                <path d="M7.66666667,1.33333333 C4.54,1.33333333 2,3.87333333 2,7 C2,10.1266667 4.54,12.6666667 7.66666667,12.6666667 L8,12.6666667 L8,14.6666667 C11.24,13.1066667 13.3333333,10 13.3333333,7 C13.3333333,3.87333333 10.7933333,1.33333333 7.66666667,1.33333333 Z M8.33333333,11 L7,11 L7,9.66666667 L8.33333333,9.66666667 L8.33333333,11 Z M8.6,7.81333333 C8.59333333,7.82 8.58666667,7.83333333 8.58,7.84666667 C8.54666667,7.9 8.51333333,7.95333333 8.48666667,8.00666667 C8.47333333,8.02666667 8.46666667,8.05333333 8.46,8.08 C8.44,8.12666667 8.42,8.17333333 8.40666667,8.22 C8.36,8.36 8.34,8.50666667 8.34,8.67333333 L7,8.67333333 C7,8.33333333 7.05333333,8.04666667 7.13333333,7.80666667 C7.13333333,7.8 7.13333333,7.79333333 7.14,7.78666667 C7.14666667,7.76 7.16666667,7.74666667 7.17333333,7.72 C7.21333333,7.61333333 7.26,7.52 7.32,7.42666667 C7.34,7.39333333 7.36666667,7.36 7.38666667,7.32666667 C7.40666667,7.3 7.42,7.26666667 7.44,7.24666667 L7.44666667,7.25333333 C8.00666667,6.52 8.92,6.29333333 8.99333333,5.46666667 C9.05333333,4.81333333 8.58666667,4.18 7.94666667,4.04666667 C7.25333333,3.9 6.62666667,4.30666667 6.41333333,4.9 C6.32,5.14 6.1,5.33333333 5.82666667,5.33333333 L5.69333333,5.33333333 C5.29333333,5.33333333 5,4.94 5.11333333,4.55333333 C5.48,3.34 6.69333333,2.49333333 8.06666667,2.69333333 C9.19333333,2.86 10.0933333,3.78666667 10.2866667,4.91333333 C10.58,6.54 9.2,6.93333333 8.6,7.81333333 L8.6,7.81333333 Z" id="Shape" fill="#6C7A8D" fill-rule="nonzero"></path>
            </g>
        </g>
    </g>
</svg>