<?xml version="1.0" encoding="UTF-8"?>
<svg width="10px" height="14px" viewBox="0 0 10 14" version="1.1" xmlns="http://www.w3.org/2000/svg" xmlns:xlink="http://www.w3.org/1999/xlink">
    <!-- Generator: sketchtool 61.2 (101010) - https://sketch.com -->
    <title>D05CE52D-86BE-4CEA-8362-258E04289F51@1</title>
    <desc>Created with sketchtool.</desc>
    <g id="Page-1" stroke="none" stroke-width="1" fill="none" fill-rule="evenodd">
        <g id="Menu---Logged-in" transform="translate(-283.000000, -483.000000)">
            <g id="location_on-24px" transform="translate(280.000000, 482.000000)">
                <polygon id="Path" points="0 0 16 0 16 16 0 16"></polygon>
                <path d="M8,1.33333333 C5.42,1.33333333 3.33333333,3.42 3.33333333,6 C3.33333333,8.78 6.28,12.6133333 7.49333333,14.0733333 C7.76,14.3933333 8.24666667,14.3933333 8.51333333,14.0733333 C9.72,12.6133333 12.6666667,8.78 12.6666667,6 C12.6666667,3.42 10.58,1.33333333 8,1.33333333 Z M8,7.66666667 C7.08,7.66666667 6.33333333,6.92 6.33333333,6 C6.33333333,5.08 7.08,4.33333333 8,4.33333333 C8.92,4.33333333 9.66666667,5.08 9.66666667,6 C9.66666667,6.92 8.92,7.66666667 8,7.66666667 Z" id="Shape" fill="#154f9c" fill-rule="nonzero"></path>
            </g>
        </g>
    </g>
</svg>