<?xml version="1.0" encoding="UTF-8"?>
<svg width="14px" height="12px" viewBox="0 0 14 12" version="1.1" xmlns="http://www.w3.org/2000/svg" xmlns:xlink="http://www.w3.org/1999/xlink">
    <!-- Generator: sketchtool 61.2 (101010) - https://sketch.com -->
    <title>55E41A54-4A07-4CDA-A6CD-95D0D5D105DF@1</title>
    <desc>Created with sketchtool.</desc>
    <g id="Page-1" stroke="none" stroke-width="1" fill="none" fill-rule="evenodd">
        <g id="Menu---Logged-in" transform="translate(-281.000000, -450.000000)">
            <g id="Online" transform="translate(280.000000, 448.000000)">
                <polygon id="Path" points="0 0 16 0 16 16 0 16"></polygon>
                <path d="M13.3333333,2.66666667 L2.66666667,2.66666667 C1.92666667,2.66666667 1.34,3.26 1.34,4 L1.33333333,12 C1.33333333,12.74 1.92666667,13.3333333 2.66666667,13.3333333 L13.3333333,13.3333333 C14.0733333,13.3333333 14.6666667,12.74 14.6666667,12 L14.6666667,4 C14.6666667,3.26 14.0733333,2.66666667 13.3333333,2.66666667 Z M13.3333333,12 L2.66666667,12 L2.66666667,8 L13.3333333,8 L13.3333333,12 Z M13.3333333,5.33333333 L2.66666667,5.33333333 L2.66666667,4 L13.3333333,4 L13.3333333,5.33333333 Z" id="Shape" fill="#6C7A8D" fill-rule="nonzero"></path>
            </g>
        </g>
    </g>
</svg>