<?xml version="1.0" encoding="UTF-8"?>
<svg width="14px" height="12px" viewBox="0 0 14 12" version="1.1" xmlns="http://www.w3.org/2000/svg" xmlns:xlink="http://www.w3.org/1999/xlink">
    <!-- Generator: sketchtool 61.2 (101010) - https://sketch.com -->
    <title>9DB16B93-5181-463D-AB53-3467B5B2E675@1</title>
    <desc>Created with sketchtool.</desc>
    <g id="Page-1" stroke="none" stroke-width="1" fill="none" fill-rule="evenodd">
        <g id="Menu---Logged-in" transform="translate(-281.000000, -1108.000000)">
            <g id="Who-We-Are" transform="translate(280.000000, 1106.000000)">
                <polygon id="Path" points="0 0 16 0 16 16 0 16"></polygon>
                <path d="M8,4.66666667 L8,3.33333333 C8,2.6 7.4,2 6.66666667,2 L2.66666667,2 C1.93333333,2 1.33333333,2.6 1.33333333,3.33333333 L1.33333333,12.6666667 C1.33333333,13.4 1.93333333,14 2.66666667,14 L13.3333333,14 C14.0666667,14 14.6666667,13.4 14.6666667,12.6666667 L14.6666667,6 C14.6666667,5.26666667 14.0666667,4.66666667 13.3333333,4.66666667 L8,4.66666667 Z M4,12.6666667 L2.66666667,12.6666667 L2.66666667,11.3333333 L4,11.3333333 L4,12.6666667 Z M4,10 L2.66666667,10 L2.66666667,8.66666667 L4,8.66666667 L4,10 Z M4,7.33333333 L2.66666667,7.33333333 L2.66666667,6 L4,6 L4,7.33333333 Z M4,4.66666667 L2.66666667,4.66666667 L2.66666667,3.33333333 L4,3.33333333 L4,4.66666667 Z M6.66666667,12.6666667 L5.33333333,12.6666667 L5.33333333,11.3333333 L6.66666667,11.3333333 L6.66666667,12.6666667 Z M6.66666667,10 L5.33333333,10 L5.33333333,8.66666667 L6.66666667,8.66666667 L6.66666667,10 Z M6.66666667,7.33333333 L5.33333333,7.33333333 L5.33333333,6 L6.66666667,6 L6.66666667,7.33333333 Z M6.66666667,4.66666667 L5.33333333,4.66666667 L5.33333333,3.33333333 L6.66666667,3.33333333 L6.66666667,4.66666667 Z M12.6666667,12.6666667 L8,12.6666667 L8,11.3333333 L9.33333333,11.3333333 L9.33333333,10 L8,10 L8,8.66666667 L9.33333333,8.66666667 L9.33333333,7.33333333 L8,7.33333333 L8,6 L12.6666667,6 C13.0333333,6 13.3333333,6.3 13.3333333,6.66666667 L13.3333333,12 C13.3333333,12.3666667 13.0333333,12.6666667 12.6666667,12.6666667 Z M12,7.33333333 L10.6666667,7.33333333 L10.6666667,8.66666667 L12,8.66666667 L12,7.33333333 Z M12,10 L10.6666667,10 L10.6666667,11.3333333 L12,11.3333333 L12,10 Z" id="Shape" fill="#6C7A8D" fill-rule="nonzero"></path>
            </g>
        </g>
    </g>
</svg>